<?xml version="1.0" standalone="no"?>
<!DOCTYPE svg PUBLIC "-//W3C//DTD SVG 20010904//EN"
 "http://www.w3.org/TR/2001/REC-SVG-20010904/DTD/svg10.dtd">
<svg version="1.0" xmlns="http://www.w3.org/2000/svg"
 width="1080.000000pt" height="1080.000000pt" viewBox="0 0 1080.000000 1080.000000"
 preserveAspectRatio="xMidYMid meet">

<g transform="translate(0.000000,1080.000000) scale(0.100000,-0.100000)"
fill="#000000" stroke="none">
<path d="M4806 8307 c3 -10 9 -15 12 -12 3 3 0 11 -7 18 -10 9 -11 8 -5 -6z"/>
<path d="M3953 8175 c0 -8 4 -12 9 -9 5 3 6 10 3 15 -9 13 -12 11 -12 -6z"/>
<path d="M4826 7973 c-6 -14 -5 -15 5 -6 7 7 10 15 7 18 -3 3 -9 -2 -12 -12z"/>
<path d="M4300 7790 c-8 -5 -10 -10 -5 -10 6 0 17 5 25 10 8 5 11 10 5 10 -5
0 -17 -5 -25 -10z"/>
<path d="M3045 7781 c-3 -5 -2 -12 3 -15 5 -3 9 1 9 9 0 17 -3 19 -12 6z"/>
<path d="M3647 7569 c7 -7 15 -10 18 -7 3 3 -2 9 -12 12 -14 6 -15 5 -6 -5z"/>
<path d="M6000 6558 c-20 -6 -31 -23 -50 -79 -40 -117 -67 -152 -153 -193 -85
-40 -157 -107 -157 -146 0 -14 -14 -45 -30 -69 -32 -47 -41 -114 -19 -150 7
-10 9 -29 6 -43 -9 -36 -79 -127 -114 -148 -15 -9 -42 -31 -59 -47 -30 -30
-86 -53 -131 -53 -24 0 -55 -43 -77 -106 -9 -28 -25 -46 -56 -64 -33 -20 -46
-36 -61 -75 -10 -27 -19 -64 -19 -80 0 -24 -12 -42 -50 -80 -27 -27 -48 -51
-45 -53 2 -2 -6 -21 -19 -41 -13 -20 -28 -52 -35 -72 -6 -21 -25 -51 -41 -68
-20 -20 -30 -41 -30 -61 l0 -30 199 0 199 0 -5 83 c-5 77 -4 83 18 103 13 12
38 26 54 31 l30 10 3 141 3 142 163 0 164 0 3 150 4 150 30 25 c70 57 128 76
247 78 37 0 48 5 56 21 11 25 106 92 144 101 27 7 46 44 28 55 -6 4 -7 20 -4
37 5 27 12 33 45 38 28 5 39 12 39 25 0 22 57 33 126 23 35 -5 45 -3 40 6 -4
6 -3 18 3 25 8 10 6 18 -9 31 -11 10 -20 26 -20 36 0 10 -4 20 -8 23 -5 3 -9
31 -11 63 -2 57 -7 106 -11 111 -2 1 -3 7 -4 13 -2 16 -49 49 -72 49 -12 0
-27 7 -34 15 -8 9 -17 12 -24 6 -9 -7 -54 -12 -132 -13 -30 0 -75 31 -88 62
-9 23 -15 26 -36 18z"/>
<path d="M7839 5527 c6 -8 7 -18 3 -22 -4 -5 -1 -5 6 -1 10 6 10 11 1 22 -6 8
-14 14 -16 14 -3 0 0 -6 6 -13z"/>
<path d="M7427 5280 c7 -8 20 -15 29 -16 9 -1 13 1 9 4 -4 4 -10 7 -13 7 -4 0
-14 4 -22 9 -12 7 -13 6 -3 -4z"/>
<path d="M8095 5221 c-3 -5 -2 -12 3 -15 5 -3 9 1 9 9 0 17 -3 19 -12 6z"/>
<path d="M7700 4999 c0 -5 5 -7 10 -4 6 3 10 8 10 11 0 2 -4 4 -10 4 -5 0 -10
-5 -10 -11z"/>
<path d="M3735 3935 c-48 -47 -28 -93 65 -150 66 -40 85 -74 56 -103 -19 -19
-80 -20 -103 0 -9 7 -22 26 -29 43 l-13 30 -1 -32 c-1 -83 157 -103 190 -24
18 44 -2 76 -78 125 -38 24 -72 51 -75 60 -26 67 92 83 128 17 l14 -26 1 27
c0 58 -107 82 -155 33z"/>
<path d="M6853 3949 c-76 -22 -118 -149 -76 -228 55 -105 188 -105 241 -1 26
52 28 95 6 150 -27 68 -99 101 -171 79z m88 -19 c63 -34 71 -203 12 -250 -83
-65 -170 31 -148 162 13 75 79 118 136 88z"/>
<path d="M7265 3953 c-82 -22 -132 -151 -91 -231 30 -57 63 -77 126 -77 51 0
63 4 89 29 43 41 39 55 -4 17 -97 -85 -204 5 -180 151 18 105 144 136 188 46
l17 -33 0 31 c0 23 -7 36 -24 48 -27 17 -90 27 -121 19z"/>
<path d="M2551 3923 c-18 -39 -111 -265 -111 -269 0 -2 4 -4 9 -4 4 0 16 20
25 45 l18 45 63 0 c60 0 63 -1 75 -30 14 -35 45 -60 73 -60 18 0 18 1 -1 18
-11 9 -44 77 -73 150 -29 72 -56 132 -60 132 -3 0 -11 -12 -18 -27z m34 -103
c9 -25 19 -51 22 -57 4 -10 -10 -13 -51 -13 -31 0 -56 3 -56 6 0 18 54 124 60
117 4 -4 15 -28 25 -53z"/>
<path d="M2810 3943 c27 -11 30 -26 30 -160 0 -126 1 -133 20 -133 18 0 20 7
20 70 0 86 17 93 58 23 38 -66 67 -93 99 -93 27 0 27 0 6 15 -18 13 -83 112
-83 128 0 2 9 7 19 10 29 7 54 52 47 84 -10 44 -40 56 -141 60 -49 1 -83 0
-75 -4z m153 -31 c40 -35 -3 -118 -57 -110 -18 3 -21 11 -24 62 -3 64 7 80 43
70 11 -4 28 -13 38 -22z"/>
<path d="M3157 3943 c-4 -3 -7 -20 -7 -37 l0 -31 13 25 c9 19 22 26 50 28 l37
3 0 -140 c0 -134 1 -141 20 -141 19 0 20 7 20 140 l0 140 49 0 c28 0 53 5 56
10 7 11 -227 15 -238 3z"/>
<path d="M3520 3812 c0 -151 4 -162 54 -161 29 0 29 1 9 9 -22 9 -23 14 -23
150 0 133 -1 140 -20 140 -19 0 -20 -7 -20 -138z"/>
<path d="M4081 3805 c-65 -155 -65 -155 -52 -155 4 0 16 20 25 45 l18 45 63 0
c60 0 63 -1 75 -30 14 -34 45 -60 72 -60 17 0 17 1 0 18 -10 10 -42 77 -72
150 -30 73 -57 132 -61 132 -4 0 -34 -65 -68 -145z m109 -47 c0 -5 -25 -8 -56
-8 -63 0 -62 -3 -21 88 l20 47 28 -60 c16 -33 28 -63 29 -67z"/>
<path d="M4398 3934 c21 -14 22 -22 22 -150 0 -83 4 -134 10 -134 6 0 10 46
10 118 1 106 2 115 16 97 29 -40 120 -149 151 -184 l32 -36 -1 155 c-2 137 -3
142 -5 43 -2 -62 -7 -113 -11 -113 -4 1 -38 41 -77 91 -81 105 -108 129 -144
129 l-25 0 22 -16z"/>
<path d="M4851 3848 c-69 -164 -81 -198 -72 -198 5 0 17 20 27 45 l17 45 63 0
c63 0 64 0 78 -34 16 -38 42 -56 78 -55 l23 0 -22 11 c-16 8 -38 51 -79 149
-31 77 -60 139 -63 139 -4 0 -26 -46 -50 -102z m58 -10 c38 -90 38 -88 -17
-88 -27 0 -51 3 -54 6 -6 5 41 124 49 124 2 0 12 -19 22 -42z"/>
<path d="M5142 3938 c-7 -7 -12 -23 -12 -37 l0 -26 13 25 c10 20 21 26 55 28
l42 3 0 -140 c0 -134 1 -141 20 -141 19 0 20 7 20 140 l0 140 50 0 c28 0 50 5
50 10 0 15 -223 13 -238 -2z"/>
<path d="M5600 3801 c0 -94 4 -151 10 -151 6 0 10 48 10 123 l0 122 58 -122
c31 -68 59 -123 62 -123 3 0 30 56 60 123 l55 122 2 -100 c4 -126 7 -139 38
-153 38 -18 48 -15 25 8 -18 18 -20 33 -20 161 0 139 0 140 -22 137 -18 -2
-32 -26 -72 -115 -28 -62 -52 -113 -55 -113 -4 0 -29 51 -57 113 -40 86 -56
113 -73 115 -21 3 -21 1 -21 -147z"/>
<path d="M6151 3923 c-18 -39 -111 -265 -111 -269 0 -2 4 -4 9 -4 4 0 16 20
25 45 l18 45 63 0 c60 0 63 -1 75 -30 14 -35 45 -60 73 -60 18 0 18 1 -1 18
-11 9 -44 77 -73 150 -29 72 -56 132 -60 132 -3 0 -11 -12 -18 -27z m34 -103
c9 -25 19 -51 22 -57 4 -10 -10 -13 -51 -13 -31 0 -56 3 -56 6 0 18 54 124 60
117 4 -4 15 -28 25 -53z"/>
<path d="M6410 3943 c27 -11 30 -26 30 -160 0 -126 1 -133 20 -133 18 0 20 7
20 70 0 86 17 93 58 23 38 -66 67 -93 99 -93 27 0 27 0 6 15 -18 13 -83 112
-83 128 0 2 9 7 19 10 29 7 54 52 47 84 -10 44 -40 56 -141 60 -49 1 -83 0
-75 -4z m153 -31 c40 -35 -3 -118 -57 -110 -18 3 -21 11 -24 62 -3 64 7 80 43
70 11 -4 28 -13 38 -22z"/>
<path d="M7591 3805 c-65 -155 -65 -155 -52 -155 4 0 16 20 25 45 l18 45 63 0
c60 0 63 -1 75 -30 15 -36 46 -60 75 -60 20 0 20 1 -1 18 -12 9 -45 77 -75
150 -29 72 -56 132 -60 132 -4 0 -34 -65 -68 -145z m84 15 c9 -25 19 -51 22
-57 4 -10 -10 -13 -51 -13 -31 0 -56 3 -56 6 0 18 54 124 60 117 4 -4 15 -28
25 -53z"/>
<path d="M7920 3812 c0 -151 4 -162 55 -161 28 0 28 1 8 9 -22 9 -23 14 -23
150 0 133 -1 140 -20 140 -19 0 -20 -7 -20 -138z"/>
<path d="M8110 3937 c24 -12 25 -16 30 -152 l6 -140 2 113 c1 61 6 112 11 112
4 0 48 -49 97 -110 49 -60 92 -109 97 -110 4 0 7 68 7 150 0 176 -18 208 -22
40 l-3 -110 -80 101 c-85 108 -98 119 -142 119 l-28 0 25 -13z"/>
<path d="M4042 3273 c747 -2 1969 -2 2715 0 747 1 136 2 -1357 2 -1493 0
-2104 -1 -1358 -2z"/>
</g>
</svg>
